
PLOT

In the smallest of Florida towns a lone well driller, Joe, works gathering
geological samples for a university study. Unknowingly, Joe unearths more than just primordial
muck from deep below the swamp. A strange oozing liquid, is absorbed into Joe's skin and slowly
transposes his sense of pain and pleasure. Unaware that he is now a victim and carrier of a
horrible virus, Joe lingers in town a few extra days to woo the town's pretty diner waitress,
Maria. Allen, a weekly town visitor and long time suitor of Maria's, is unaware of Joe's
romantic interest. When Allen's frequent visits to see Maria are delayed by work, Allen must
make a final decision to quit his job and propose to Maria or break off their relationship.
When Allen makes the decision to move to Ochopee and marry Maria he arrives to find the town a
changed place.
 
http://www.imdb.com/title/tt0926341/

Encoded By .......: BigPerm1828
Runtime ..........: 1h 25mn
File Size ........: 769 MB
Resolution .......: 704x396
IMDb URL .........: http://www.imdb.com/title/tt0926341/
Genre ............: Thriller
Language .........: English
Video
ID : 0
Format : MPEG-4 Visual
Format profile : Advanced Simple@L5
Format settings, BVOP : Yes
Format settings, QPel : No
Format settings, GMC : No warppoints
Format settings, Matrix : Default (H.263)
Codec ID : XVID
Codec ID/Hint : XviD
Duration : 1h 25mn
Bit rate : 1 057 Kbps
Width : 704 pixels
Height : 396 pixels
Display aspect ratio : 16:9
Frame rate : 23.976 fps
Color space : YUV
Chroma subsampling : 4:2:0
Bit depth : 8 bits
Scan type : Progressive
Compression mode : Lossy
Bits/(Pixel*Frame) : 0.158
Stream size : 648 MiB (84%)
Writing library : XviD 1.2.1 (UTC 2008-12-04)

Audio
ID : 1
Format : AC-3
Format/Info : Audio Coding 3
Mode extension : CM (complete main)
Codec ID : 2000
Duration : 1h 25mn
Bit rate mode : Constant
Bit rate : 192 Kbps
Channel(s) : 2 channels
Channel positions : Front: L R
Sampling rate : 48.0 KHz
Bit depth : 16 bits
Compression mode : Lossy
Video delay : 42ms
Stream size : 118 MiB (15%)
Alignment : Split accross interleaves
Interleave, duration : 500 ms (11.99 video frames)
Interleave, preload duration : 500 ms
 
http://leetleech.org/images/61662178601458541157.png
 
http://leetleech.org/images/22495668757530075695.png
 
http://leetleech.org/images/09043794774638153199.png
 
http://leetleech.org/images/14645317397073085678.png
 
http://leetleech.org/images/28800533260767544030.png